
<svg width="575" height="434" xmlns="http://www.w3.org/2000/svg">
    <path id="myPath" d="M 264.0023184531463 9.99338898117712 L 264.0023184531463 9.99338898117712 L 263.3015410766758 9.955992557503158 L 262.60760185503386 9.929361896728397 L 261.920400861539 9.913349471162261 L 261.23983816951005 9.90780775311418 L 260.5658138522658 9.91258921489358 L 259.8982279831249 9.927546328809898 L 259.2369806354063 9.952531567172556 L 258.5819718824284 9.987397402290984 L 257.93310179751 10.031996306474605 L 257.29027045397015 10.086180752032861 L 256.6533779251273 10.149803211275168 L 256.02232428430034 10.222716156510964 L 255.3970096048078 10.30477206004967 L 254.77733395996867 10.39582339420072 L 254.16319742310154 10.49572263127354 L 253.5545000675252 10.604322243577561 L 252.9511419665584 10.721474703422212 L 252.35302319351982 10.847032483116918 L 251.76004382172826 10.980848054971112 L 251.17210392450238 11.122773891294216 L 250.58910357516106 11.272662464395665 L 250.01094284702287 11.430366246584887 L 249.43752181340676 11.595737710171315 L 248.86874054763126 11.768629327464366 L 248.30449912301512 11.948893570773475 L 247.74469761287725 12.136382912408074 L 247.18923609053624 12.330949824677587 L 246.63801462931096 12.532446779891448 L 246.09093330251997 12.740726250359078 L 245.5478921834821 12.95564070838991 L 245.0087913455161 13.177042626293375 L 244.4735308619408 13.404784476378898 L 243.94201080607476 13.63871873095591 L 243.41413125123682 13.878697862333837 L 242.88979227074574 14.124574342822115 L 242.36889393792012 14.37620064473016 L 241.85133632607887 14.633429240367409 L 241.3370195085407 14.896112602043296 L 240.82584355862423 15.164103202067238 L 240.31770854964824 15.437253512748669 L 239.81251455493157 15.715416006397017 L 239.31016164779294 15.998443155321716 L 238.81054990155098 16.28618743183219 L 238.3135793895245 16.57850130823787 L 237.81915018503224 16.875237256848173 L 237.32716236139282 17.176247749972543 L 236.8375159919252 17.481385259920405 L 236.35011114994802 17.790502259001183 L 235.86484790878004 18.103451219524313 L 235.38162634173977 18.420084613799215 L 234.90034652214632 18.740254914135328 L 234.42090852331816 19.063814592842064 L 233.94321241857415 19.39061612222887 L 233.46715828123303 19.720511974605166 L 232.99264618461345 20.05335462228038 L 232.5195762020343 20.388996537563948 L 232.0478484068142 20.72729019276529 L 231.57736287227186 21.068088060193844 L 231.10801967172614 21.41124261215903 L 230.63971887849564 21.75660632097027 L 230.17236056589923 22.10403165893701 L 229.7058448072556 22.453371098368677 L 229.24007167588343 22.80447711157468 L 228.77494124510156 23.15720217086447 L 228.31035358822862 23.511398748547467 L 227.84620877858347 23.8669193169331 L 227.38240688948474 24.223616348330793 L 226.91884799425128 24.581342315049984 L 226.45543216620172 24.9399496894001 L 225.99205947865482 25.299290943690565 L 225.5286300049294 25.6592185502308 L 225.0650438183441 26.019584981330254 L 224.60120099221768 26.380242709298344 L 224.1370015998689 26.741044206444492 L 223.6723457146165 27.101841945078142 L 223.2071334097793 27.462488397508718 L 222.7412647586759 27.822836036045636 L 222.27463983462508 28.18273733299834 L 221.80715871094566 28.542044760676255 L 221.3387214609562 28.900610791388804 L 220.86922815797567 29.258287897445427 L 220.3985788753226 29.614928551155536 L 219.92667368631587 29.970385224828572 L 219.45341266427417 30.324510390773963 L 218.9786958825162 30.677156521301136 L 218.5024234143608 31.02817608871953 L 218.0244953331266 31.377421565338544 L 217.5448117121324 31.724745423467635 L 217.0632726246969 32.07000013541622 L 216.5797781441389 32.41303817349373 L 216.09422834377708 32.7537120100096 L 215.60652329693022 33.09187411727326 L 215.11656307691703 33.42737696759411 L 214.62424775705622 33.76007303328161 L 214.1294774106666 34.08981478664517 L 213.6321521110669 34.41645469999425 L 213.13217193157578 34.73984524563824 L 212.6294369455121 35.05983889588659 L 212.12384722619453 35.376288123048724 L 211.61530284694177 35.689045399434065 L 211.10370388107262 35.99796319735205 L 210.58895040190578 36.30289398911211 L 210.07094248276005 36.603690247023664 L 209.54958019695408 36.90020444339615 L 209.0247636178067 37.19228905053899 L 208.4963928186366 37.479796540761605 L 207.9643678727625 37.76257938637345 L 207.42858885350316 38.040490059683925 L 206.88895583417738 38.31338103300248 L 206.3453688881038 38.58110477863853 L 205.79772808860122 38.84351376890151 L 205.24593350898834 39.10046047610084 L 204.6898852225839 39.35179737254597 L 204.1294833027067 39.5973769305463 L 203.56462782267542 39.83705162241129 L 202.99521885580884 40.07067392045034 L 202.42124542707163 40.298200408035825 L 201.84313457821656 40.52010033351552 L 201.2614479461039 40.73700047846249 L 200.67674720397426 40.9495276670304 L 200.0895940250681 41.15830872337285 L 199.50055008262612 41.36397047164348 L 198.910177049889 41.56713973599597 L 198.31903660009726 41.76844334058395 L 197.72769040649152 41.96850810956104 L 197.1367001423125 42.16796086708092 L 196.54662748080065 42.367428437297214 L 195.95803409519675 42.56753764436357 L 195.37148165874132 42.76891531243362 L 194.78753184467504 42.97218826566103 L 194.20674632623843 43.177983328199424 L 193.6296867766722 43.38692732420245 L 193.05691486921694 43.599647077823775 L 192.4889922771132 43.816769413217 L 191.9264806736017 44.03892115453581 L 191.369941731923 44.26672912593381 L 190.81993712531778 44.50082015156467 L 190.2770285270266 44.74182105558204 L 189.74177761029 44.99035866213954 L 189.2147460483487 45.247059795390825 L 188.69649551444334 45.51255127948954 L 188.18758768181448 45.78745993858932 L 187.6885842237027 46.07241259684382 L 187.20004681334873 46.36803607840669 L 186.72253712399305 46.67495720743155 L 186.25661682887642 46.99380280807206 L 185.8028476012393 47.325199704481854 L 185.3617911143225 47.669774720814594 L 184.93400904136647 48.0281546812239 L 184.52006305561187 48.400966409863436 L 184.12051483029936 48.78883673088684 L 183.7359260386695 49.19239246844775 L 183.36685835396293 49.6122604466998 L 183.01387232235868 50.04906636369131 L 182.67703296743414 50.50294081528123 L 182.35513471268638 50.97274487525341 L 182.0467711823972 51.45713898853913 L 181.75053600084868 51.95478360006961 L 181.46502279232266 52.464339154776155 L 181.18882518110115 52.98446609759 L 180.92053679146596 53.51382487344238 L 180.65875124769906 54.05107592726457 L 180.4020621740824 54.59487970398779 L 180.14906319489793 55.14389664854337 L 179.8983479344275 55.69678720586249 L 179.6485100169531 56.25221182087646 L 179.39814306675666 56.8088309385165 L 179.1458407081201 57.36530500371384 L 178.89019656532525 57.92029446139979 L 178.62980426265423 58.4724597565056 L 178.3632574243888 59.02046133396249 L 178.08914967481095 59.56295963870175 L 177.8060831186297 60.09862167649358 L 177.5135832247635 60.626828809100324 L 177.21291599635026 61.14830895366972 L 176.9055402388864 61.6639391879069 L 176.5929147578685 62.17459658951708 L 176.27649835879308 62.68115823620547 L 175.9577498471566 63.18450120567719 L 175.63812802845572 63.68550257563751 L 175.31909170818682 64.18503942379154 L 175.0020996918465 64.68398882784454 L 174.68861078493129 65.18322786550165 L 174.3800837929377 65.6836336144681 L 174.07797752136221 66.18608315244902 L 173.78375077570152 66.69145355714966 L 173.49886236145198 67.20062190627519 L 173.22477108411013 67.71446527753075 L 172.96293574917254 68.2338607486216 L 172.71481516213575 68.75968539725287 L 172.48186812849627 69.29281630112979 L 172.26555345375064 69.83413053795753 L 172.06720076709254 70.38443840129541 L 171.88583742888156 70.94335991176281 L 171.71850826298768 71.50949011865484 L 171.56219331191764 72.08139057930318 L 171.41387261817843 72.65762285103958 L 171.27052622427686 73.23674849119573 L 171.12913417271986 73.81732905710336 L 170.98667650601422 74.39792610609412 L 170.8401332666669 74.97710119549983 L 170.68648449718475 75.55341588265213 L 170.52271024007462 76.12543172488277 L 170.34579053784338 76.69171027952345 L 170.152705432998 77.25081310390588 L 169.94043496804522 77.80130175536175 L 169.705959185492 78.34173779122281 L 169.44625812784525 78.87068276882081 L 169.15831183761168 79.38669824548738 L 168.83910035729835 79.8883457785543 L 168.4864649924345 80.37453644011431 L 168.10266247456718 80.8459731550736 L 167.6913606730782 81.30393151138111 L 167.25622808100002 81.74968735007363 L 166.80093319136466 82.18451651218776 L 166.32914449720457 82.6096948387602 L 165.84453049155198 83.02649817082764 L 165.350759667439 83.43620234942672 L 164.8515005178981 83.84008321559416 L 164.3504215359615 84.23941661036665 L 163.85119121466138 84.63547837478082 L 163.3574780470301 85.02954434987338 L 162.87295052609986 85.42289037668097 L 162.40127714490302 85.81679229624034 L 161.94612639647175 86.21252594958814 L 161.51116677383834 86.61136717776101 L 161.10006677003508 87.01459182179565 L 160.71649487809427 87.42347572272875 L 160.36411959104808 87.83929472159703 L 160.04660940192886 88.2633246594371 L 159.76763280376886 88.69684137728564 L 159.5308582896003 89.14112071617933 L 159.33995435245552 89.59743851715494 L 159.19858946902878 90.06707061669589 L 159.1090706060307 90.55091341888702 L 159.06862812579675 91.04844855436411 L 159.07330941259423 91.55882797552962 L 159.11916185069026 92.0812036347859 L 159.20223282435202 92.61472748453544 L 159.31856971784677 93.15855147718064 L 159.46421991544165 93.71182756512391 L 159.6352308014039 94.27370770076774 L 159.82764976000064 94.84334383651448 L 160.03752417549921 95.41988792476664 L 160.26090143216663 96.00249191792659 L 160.49382891427015 96.59030776839674 L 160.7323540060771 97.18248742857956 L 160.97252409185447 97.77818285087746 L 161.21038655586955 98.37654598769284 L 161.4419887823896 98.97672879142822 L 161.66337815568164 99.57788321448588 L 161.8706528214672 100.1791673893398 L 162.0620875254683 100.78000444369935 L 162.23890803979944 101.38017678485386 L 162.40255029587084 101.97949240642548 L 162.55445022509272 102.57775930203636 L 162.69604375887525 103.17478546530862 L 162.82876682862872 103.7703788898645 L 162.95405536576325 104.36434756932606 L 163.0733453016892 104.95649949731558 L 163.18807256781662 105.5466426674551 L 163.29967309555587 106.13458507336681 L 163.40958281631706 106.7201347086729 L 163.51923766151057 107.30309956699554 L 163.63007356254644 107.88328764195684 L 163.743526450835 108.46050692717895 L 163.86103225778635 109.03456541628402 L 163.98402691481084 109.60527110289429 L 164.11394445431705 110.17243245609286 L 164.2514198188472 110.73605801645853 L 164.39505379417366 111.296665624968 L 164.54312823543452 111.85485297460433 L 164.69392499776814 112.41121775835056 L 164.84572593631268 112.96635766918963 L 164.99681290620632 113.52087040010458 L 165.1454677625873 114.07535364407829 L 165.28997236059388 114.63040509409389 L 165.42860855536412 115.18662244313427 L 165.55965820203642 115.74460338418247 L 165.68140315574894 116.30494561022151 L 165.79212527163983 116.86824681423431 L 165.89010640484736 117.43510468920392 L 165.97362841050975 118.00611692811333 L 166.04097314376517 118.58188122394549 L 166.0904224597519 119.16299526968345 L 166.12025821360808 119.75005675831015 L 166.12920741199972 120.34350790937745 L 166.1182414191683 120.94300707907536 L 166.08903732538568 121.5479661420239 L 166.04327247820575 122.15779688298505 L 165.98262422518246 122.77191108672064 L 165.90876991386958 123.38972053799263 L 165.82338689182083 124.01063702156274 L 165.72815250659042 124.63407232219306 L 165.6247441057319 125.25943822464541 L 165.5148390367993 125.88614651368161 L 165.40011464734638 126.51360897406369 L 165.28224828492714 127.14123739055344 L 165.16291729709528 127.76844354791275 L 165.0437990314047 128.39463923090355 L 164.9265708354093 129.01923622428774 L 164.812910056663 129.64164631282722 L 164.70449404271952 130.2612812812838 L 164.60300014113275 130.87755291441943 L 164.51010569945666 131.48987299699604 L 164.42748806524503 132.09765331377542 L 164.35682458605172 132.70030564951958 L 164.2997926094306 133.29724178899033 L 164.25806948293553 133.88787351694958 L 164.23333255412038 134.47161261815924 L 164.22725917053899 135.04787087738117 L 164.24152667974525 135.6160600793773 L 164.277812429293 136.17559200890946 L 164.33779376673607 136.72587845073966 L 164.42314803962836 137.26633118962962 L 164.53555259552377 137.7963620103414 L 164.67668478197606 138.3153826976368 L 164.84822194653916 138.82280503627769 L 165.05184143676695 139.31804081102607 L 165.2892205188765 139.8005018386263 L 165.5611580549578 140.26994533552022 L 165.8654037887267 140.72732747035158 L 166.1990463054866 141.1738643876779 L 166.55917419054094 141.6107722320567 L 166.942876029193 142.03926714804533 L 167.34724040674618 142.4605652802013 L 167.76935590850388 142.87588277308217 L 168.2063111197694 143.28643577124527 L 168.65519462584618 143.69344041924816 L 169.11309501203755 144.09811286164825 L 169.5771008636468 144.501669243003 L 170.04430076597745 144.90532570786993 L 170.5117833043327 145.31029840080643 L 170.9766370640161 145.71780346637004 L 171.4359506303309 146.12905704911822 L 171.88681258858048 146.5452752936084 L 172.32631152406822 146.967674344398 L 172.7515360220975 147.3974703460446 L 173.15957466797167 147.83587944310557 L 173.54751604699408 148.28411778013842 L 173.9124487444681 148.7434015017006 L 174.25146134569718 149.2149467523496 L 174.56164243598454 149.6999696766428 L 174.84008433252507 150.19968482067702 L 175.08545593458314 150.7146314416989 L 175.30044212807147 151.2436286511684 L 175.48835791006903 151.78522566844615 L 175.65251827765448 152.33797171289248 L 175.79623822790685 152.9004160038681 L 175.92283275790493 153.4711077607334 L 176.0356168647276 154.04859620284893 L 176.13790554545366 154.6314305495752 L 176.2330137971621 155.2181600202728 L 176.32425661693168 155.8073338343022 L 176.4149490018413 156.39750121102395 L 176.50840594896977 156.9872113697985 L 176.60794245539597 157.57501352998642 L 176.71687351819878 158.15945691094822 L 176.83851413445706 158.73909073204442 L 176.97617930124972 159.3124642126356 L 177.13318401565553 159.8781265720822 L 177.3122062507721 160.43490536714566 L 177.5127099945575 160.98303245379233 L 177.733147925758 161.52318156331154 L 177.97197235133729 162.0560265894371 L 178.22763557825883 162.58224142590288 L 178.49858991348611 163.10249996644276 L 178.78328766398275 163.61747610479065 L 179.0801811367121 164.12784373468034 L 179.3877226386379 164.6342767498458 L 179.7043644767235 165.13744904402088 L 180.0285589579325 165.63803451093938 L 180.3587583892284 166.1367070443352 L 180.69341507757477 166.6341405379423 L 181.03098132993503 167.13100888549442 L 181.3699094532728 167.62798598072553 L 181.7086517545516 168.12574571736948 L 182.04566054073493 168.62496198916008 L 182.3793881187862 169.12630868983123 L 182.70828679566915 169.63045971311686 L 183.03081057731922 170.1380878816708 L 183.34569888870215 170.6496860819205 L 183.65229466126328 171.165366732746 L 183.95001756116457 171.68519387729202 L 184.2382872545682 172.20923155870335 L 184.5165234076363 172.73754382012487 L 184.784145686531 173.2701947047014 L 185.04057375741436 173.8072482555777 L 185.2852272864486 174.34876851589857 L 185.51752593979575 174.89481952880888 L 185.73688938361792 175.44546533745347 L 185.9427372840773 176.00076998497698 L 186.13448930733608 176.56079751452447 L 186.31156511955624 177.12561196924057 L 186.47338438689994 177.6952773922701 L 186.61936677552936 178.269857826758 L 186.7489319516065 178.84941731584894 L 186.86149958129366 179.43401990268785 L 186.9564893366623 180.02372962850268 L 187.0339148627676 180.61841787551523 L 187.09601416537512 181.21723454006195 L 187.14554584481132 181.81916066024203 L 187.18526850140276 182.423177274155 L 187.21794073547602 183.02826541990024 L 187.2463211473576 183.6334061355772 L 187.27316833737416 184.2375804592852 L 187.30124090585213 184.83976942912358 L 187.33329745311815 185.4389540831919 L 187.3720965794987 186.03411545958943 L 187.42039688532046 186.62423459641565 L 187.48095697090986 187.20829253176993 L 187.55653543659344 187.78527030375156 L 187.64989088269783 188.3541489504601 L 187.7637819095496 188.91390950999485 L 187.9009671174752 189.4635330204552 L 188.06420505713157 190.00200053911038 L 188.25549503158143 190.52858615023837 L 188.47415809153438 191.04359759338703 L 188.71892503410527 191.54757041290287 L 188.98852665640914 192.04104015313246 L 189.2816937555607 192.52454235842217 L 189.59715712867506 192.9986125731187 L 189.93364757286707 193.4637863415685 L 190.2898958852516 193.92059920811815 L 190.66463286294365 194.3695867171141 L 191.05658930305805 194.81128441290295 L 191.46449600270978 195.24622783983125 L 191.88708375901373 195.67495254224542 L 192.32308336908486 196.0979940644921 L 192.77122563003803 196.51588795091783 L 193.23024133898812 196.929169745869 L 193.69886129305016 197.33837499369224 L 194.17581628933897 197.74403923873413 L 194.65983712496953 198.14669802534112 L 195.14965459705675 198.5468868978598 L 195.64399950271547 198.9451414006366 L 196.14160263906072 199.34199707801818 L 196.64119480320733 199.73798947435097 L 197.14150717922766 200.13365393838947 L 197.64129836786296 200.5295119608201 L 198.13937207413568 200.92606223385545 L 198.6345362047483 201.32380132592138 L 199.12559866640288 201.72322580544332 L 199.61136736580207 202.1248322408472 L 200.09065020964806 202.52911720055857 L 200.56225510464316 202.93657725300304 L 201.02498995748982 203.3477089666064 L 201.47766267489033 203.76300890979434 L 201.91908116354702 204.18297365099244 L 202.3480533301623 204.60809975862645 L 202.7633870814384 205.038883801122 L 203.16389032407776 205.47582234690483 L 203.54837096478266 205.9194119644006 L 203.91563691025553 206.370149222035 L 204.26449606719862 206.82853068823363 L 204.5937563423143 207.29505293142222 L 204.90222564230496 207.7702125200265 L 205.18871187387293 208.25450602247207 L 205.45202294372046 208.74843000718462 L 205.69096675855008 209.25248104258992 L 205.9043512250639 209.7671556971135 L 206.09109206072853 210.29291447199492 L 206.25185162411142 210.82963354435302 L 206.38870855251324 211.37671528714384 L 206.50378230972203 211.9335484151644 L 206.599192359526 212.499521643212 L 206.67705816571325 213.07402368608385 L 206.73949919207186 213.65644325857696 L 206.78863490239 214.24616907548867 L 206.82658476045572 214.84258985161597 L 206.85546823005726 215.44509430175623 L 206.87740477498264 216.05307114070655 L 206.89451385902007 216.66590908326407 L 206.90891494595758 217.28299684422606 L 206.92272749958332 217.9037231383895 L 206.93807098368546 218.52747668055179 L 206.95706486205214 219.15364618551 L 206.98182859847137 219.78162036806128 L 207.01444976107143 220.41075819685256 L 207.0565390851606 221.03997394238857 L 207.10934045427578 221.6678397462465 L 207.17408832766708 222.29291896083765 L 207.25201716458454 222.91377493857314 L 207.34436142427822 223.5289710318643 L 207.4523555659983 224.1370705931223 L 207.57723404899474 224.73663697475834 L 207.72023133251773 225.32623352918375 L 207.88258187581724 225.90442360880954 L 208.06552013814346 226.46977056604712 L 208.27028057874645 227.02083775330766 L 208.4980976568762 227.5561885230023 L 208.75020583178295 228.0743862275424 L 209.02783956271665 228.57399421933906 L 209.33223330892744 229.05357585080358 L 209.66462152966542 229.51169447434714 L 210.02623868418064 229.94691344238095 L 210.41784703861816 230.35822183607064 L 210.83808263909353 230.7465257340889 L 211.28498333691817 231.1132705468478 L 211.7565869507249 231.45990171422278 L 212.2509312991465 231.78786467608919 L 212.7660542008156 232.09860487232234 L 213.29999347436515 232.39356774279773 L 213.85078693842783 232.67419872739066 L 214.41647241163648 232.9419432659765 L 214.99508771262364 233.19824679843052 L 215.5846706600223 233.44455476462824 L 216.18325907246512 233.682312604445 L 216.78889076858493 233.9129657577561 L 217.39960356701454 234.13795966443695 L 218.0134352863865 234.35873976436295 L 218.62842374533383 234.57675149740945 L 219.24260676248906 234.79344030345175 L 219.85402215648512 235.0102516223653 L 220.46070774595478 235.22863089402546 L 221.06070134953066 235.45002355830755 L 221.65204078584563 235.67587505508692 L 222.23276387353246 235.9076308242391 L 222.8009084312239 236.14673630563928 L 223.35451227755274 236.39463693916295 L 223.89161323115164 236.65277816468537 L 224.41024911065344 236.92260542208197 L 224.90845773469096 237.20556415122817 L 225.38427692189683 237.50309979199923 L 225.835744490904 237.81665778427063 L 226.26089826034504 238.1476835679176 L 226.65777604885278 238.4976225828156 L 227.02441567506006 238.86792026884004 L 227.35885495759956 239.2600220658662 L 227.65913171510408 239.67537341376953 L 227.92328788974015 240.11541714554374 L 228.15069064932675 240.58075829180282 L 228.3439239501677 241.0699682422924 L 228.5060503820306 241.58131579658792 L 228.64013253468312 242.1130697542652 L 228.7492329978929 242.66349891489986 L 228.8364143614277 243.23087207806765 L 228.90473921505506 243.8134580433442 L 228.9572701485427 244.4095256103053 L 228.99706975165822 245.01734357852655 L 229.02720061416935 245.6351807475836 L 229.0507253258437 246.26130591705223 L 229.07070647644898 246.89398788650809 L 229.09020665575278 247.53149545552682 L 229.11228845352284 248.1720974236843 L 229.1400144595267 248.81406259055598 L 229.1764472635321 249.45565975571762 L 229.22464260433514 250.09515922335925 L 229.28600325762108 250.73119432236572 L 229.35814029414846 251.363231118006 L 229.43813527171324 251.99085196748615 L 229.5230697481112 252.61363922801212 L 229.6100252811383 253.2311752567899 L 229.6960834285903 253.84304241102555 L 229.77832574826303 254.44882304792486 L 229.85383379795235 255.04809952469387 L 229.91968913545415 255.6404541985386 L 229.97297331856427 256.2254694266651 L 230.01076790507852 256.80272756627926 L 230.03015445279283 257.371810974587 L 230.02821451950294 257.93230200879435 L 230.00202966300478 258.4837830261074 L 229.94868144109412 259.0258363837319 L 229.86525141156685 259.55804443887405 L 229.74882844607288 260.0799910671728 L 229.59786913866006 260.5915440978459 L 229.41379641582222 261.0931872019764 L 229.1984216819424 261.58548470274974 L 228.95355634140353 262.0690009233515 L 228.68101179858851 262.544300186967 L 228.3825994578802 263.0119468167817 L 228.06013072366162 263.47250513598107 L 227.71541700031563 263.9265394677505 L 227.35026969222514 264.3746141352755 L 226.96650020377305 264.8172934617415 L 226.56591993934236 265.25514177033386 L 226.1503403033159 265.688723384238 L 225.72157270007668 266.11860262663953 L 225.2814285340075 266.5453438207238 L 224.83171920949133 266.96951128967623 L 224.37425613091108 267.3916693566822 L 223.91085070264973 267.8123823449272 L 223.44331432909019 268.23221457759684 L 222.97345841461527 268.6517303778764 L 222.50309436360803 269.0714940689513 L 222.03403358045122 269.49206997400694 L 221.56808746952788 269.9140224162288 L 221.10702712634523 270.3379003433604 L 220.65159954100366 270.7638620677567 L 220.2014706213634 271.191653533106 L 219.7562545605689 271.6210009570043 L 219.31556555176462 272.05163055704753 L 218.87901778809498 272.48326855083167 L 218.4462254627045 272.91564115595264 L 218.0168027687376 273.3484745900063 L 217.59036389933885 273.7814950705887 L 217.1665230476527 274.2144288152955 L 216.74489440682362 274.647002041723 L 216.3250921699959 275.0789409674668 L 215.9067305303143 275.5099718101231 L 215.48942368092312 275.93982078728754 L 215.0727858149669 276.3682141165562 L 214.65643112559013 276.7948780155251 L 214.23997380593718 277.21953870179016 L 213.82302804915258 277.641922392947 L 213.40520804838087 278.06175530659186 L 212.9861279967664 278.4787636603205 L 212.56540208745372 278.8926736717291 L 212.14264451358733 279.30321155841324 L 211.71746946831163 279.710103537969 L 211.2895203966169 280.1130980649002 L 210.85869673417196 280.51213819480284 L 210.42503031668625 280.9072676322212 L 209.98855409187738 281.29853092703456 L 209.5493010074628 281.6859726291223 L 209.10730401115987 282.0696372883642 L 208.6625960506861 282.4495694546395 L 208.21521007375884 282.8258136778278 L 207.7651790280958 283.19841450780837 L 207.31253586141423 283.56741649446076 L 206.8573135214316 283.9328641876644 L 206.3995449558654 284.2948021372988 L 205.939263112433 284.6532748932433 L 205.476500938852 285.0083270053775 L 205.01129138283986 285.36000302358076 L 204.54366739211392 285.70834749773263 L 204.0736619143917 286.05340497771243 L 203.60130789739057 286.39522001339986 L 203.1266382888281 286.733837154674 L 202.64968603642177 287.0693009514147 L 202.1704840878889 287.40165595350106 L 201.689065390947 287.7309467108128 L 201.20546289331355 288.05721777322935 L 200.71970954270597 288.38051369063004 L 200.23183828684176 288.7008790128944 L 199.7418820734384 289.018358289902 L 199.2498738502133 289.332996071532 L 198.75584656488383 289.6448369076641 L 198.25983316516763 289.95392534817773 L 197.76186659878203 290.26030594295236 L 197.26197981344447 290.5640232418672 L 196.76020575687255 290.8651217948021 L 196.25657737678347 291.16364615163616 L 195.75112762089492 291.4596408622491 L 195.24388943692432 291.75315047652026 L 194.73489577258908 292.04421954432905 L 194.22417957560663 292.332892615555 L 193.71177379369442 292.6192142400776 L 193.19771137456996 292.9032289677763 L 192.68202526595073 293.18498134853036 L 192.16474841555407 293.4645159322195 L 191.64591377109758 293.74187726872304 L 191.12555428029856 294.01710990792054 L 190.60370289087462 294.29025839969137 L 190.08039255054308 294.5613672939149 L 189.55565620702149 294.8304811404707 L 189.02952680802727 295.09764448923823 L 188.50203730127788 295.3629018900971 L 187.97322063449076 295.62629789292635 L 187.44310975538343 295.8878770476058 L 186.9117376116733 296.1476839040148 L 186.3791371510778 296.4057630120328 L 185.84534132131435 296.66215892153923 L 185.31038307010053 296.91691618241356 L 184.77429534515375 297.1700793445352 L 184.2371110941914 297.4216929577838 L 183.69886326493102 297.67180157203865 L 183.15958480508996 297.92044973717924 L 182.61930866238578 298.16768200308496 L 182.07806778453596 298.41354291963535 L 181.5358951192578 298.65807703670987 L 180.99282361426896 298.901328904188 L 180.44888621728663 299.1433430719491 L 179.90411587602847 299.3841640898726 L 179.35854553821196 299.6238365078382 L 178.81220815155444 299.8624048757251 L 178.26513666377335 300.09991374341286 L 177.7173640225863 300.33640766078094 L 177.1689231757106 300.57193117770885 L 176.61984707086378 300.80652884407584 L 176.07016865576327 301.04024520976157 L 175.5199208781265 301.27312482464544 L 174.96913668567097 301.50521223860693 L 174.4178490261141 301.7365520015254 L 173.8660908471734 301.9671886632804 L 173.31389509656628 302.1971667737514 L 172.76129472201018 302.4265308828178 L 172.20832267122256 302.65532554035906 L 171.65501189192096 302.88359529625467 L 171.10139533182277 303.111384700384 L 170.5475059386454 303.33873830262667 L 169.99337666010632 303.56570065286195 L 169.43904044392306 303.79231630096945 L 168.88453023781307 304.0186297968286 L 168.32987898949375 304.24468569031876 L 167.77511964668264 304.47052853131953 L 167.22028515709698 304.69620286971025 L 166.66540846845444 304.92175325537033 L 166.11052252847244 305.1472242381794 L 165.5556602848684 305.3726603680167 L 165.0008546853598 305.5981061947619 L 164.446138677664 305.82360626829444 L 163.89154520949862 306.0492051384936 L 163.33710722858103 306.274947355239 L 162.78285768262865 306.50087746841 L 162.22882951935904 306.7270400278862 L 161.6750556864895 306.9534795835469 L 161.12156913173757 307.1802406852715 L 160.56840280282077 307.4073678829397 L 160.01558964745652 307.6349057264308 L 159.46316261336221 307.86289876562427 L 158.91115464825526 308.0913915503996 L 158.35959869985328 308.3204286306362 L 157.80852771587365 308.55005455621347 L 157.25797464403382 308.78031387701105 L 156.70797243205124 309.0112511429082 L 156.15855402764333 309.2429109037846 L 155.60975237852765 309.4753377095195 L 155.0616004324216 309.7085761099925 L 154.51413031861952 309.9426696872097 L 153.9673574244506 310.17764222400405 L 153.42128147612596 310.41349898225354 L 152.8759015979054 310.65024451196354 L 152.33121691404827 310.88788336313917 L 151.78722654881415 311.12642008578587 L 151.24392962646263 311.36585922990906 L 150.70132527125313 311.60620534551396 L 150.15941260744535 311.8474629826057 L 149.61819075929873 312.0896366911897 L 149.07765885107287 312.3327310212714 L 148.53781600702726 312.576750522856 L 147.99866135142142 312.8216997459489 L 147.460194008515 313.0675832405553 L 146.92241310256742 313.31440555668047 L 146.38531775783832 313.56217124432993 L 145.84890709858715 313.8108848535087 L 145.31318024907353 314.06055093422236 L 144.77813633355697 314.3111740364761 L 144.243774476297 314.56275871027515 L 143.7100938015532 314.815309505625 L 143.177093433585 315.06883097253086 L 142.6447724966521 315.323327660998 L 142.11313011501392 315.57880412103185 L 141.58216541293007 315.83526490263756 L 141.05187751466008 316.09271455582063 L 140.52226554446338 316.3511576305862 L 139.99332862659972 316.6105986769397 L 139.46506588532844 316.8710422448863 L 138.93747644490924 317.13249288443143 L 138.4105594296016 317.3949551455804 L 137.88431396366497 317.65843357833853 L 137.35873917135905 317.92293273271105 L 136.83383417694324 318.1884571587032 L 136.3095981046772 318.45501140632047 L 135.78603007882043 318.72260002556817 L 135.26312922363238 318.99122756645147 L 134.7408946633727 319.2608985789758 L 134.21932552230092 319.5316176131464 L 133.6984209246766 319.80338921896856 L 133.1781799947592 320.0762179464476 L 132.65860185680825 320.350108345589 L 132.1396856350834 320.62506496639776 L 131.62143045384414 320.90109235887945 L 131.10383543735003 321.1781950730393 L 130.58689970986055 321.45637765888256 L 130.0706223956352 321.7356446664146 L 129.55500261893374 322.0160006456408 L 129.0400395040155 322.29745014656623 L 128.52573217514012 322.57999771919646 L 128.01207975656712 322.8636479135367 L 127.49908137255595 323.1484052795922 L 126.9867361473663 323.4342743673684 L 126.47504320525768 323.7212597268705 L 125.96400167048955 324.0093659081038 L 125.45361066732154 324.29859746107377 L 124.94386932001308 324.58895893578557 L 124.43477675282381 324.88045488224446 L 123.92633209001329 325.173089850456 L 123.41853445584097 325.4668683904252 L 122.91138297456646 325.7617950521576 L 122.40487677044919 326.0578743856583 L 121.89901496774888 326.3551109409329 L 121.39379669072497 326.65350926798635 L 120.889221063637 326.9530739168243 L 120.38528721074451 327.2538094374518 L 119.881994256307 327.55572037987434 L 119.37934132458413 327.85881129409717 L 118.87732753983539 328.16308673012554 L 118.37595202632026 328.4685512379648 L 117.87521390829833 328.7752093676203 L 117.37511231002912 329.0830656690973 L 116.8756463557722 329.3921246924011 L 116.37681516978714 329.7023909875371 L 115.87861669015238 330.01386778274696 L 115.38099395463276 330.3264971307601 L 114.88381313730815 330.6401354349719 L 114.38693467687331 330.95463270782784 L 113.89021901202274 331.26983896177387 L 113.39352658145103 331.5856042092554 L 112.89671782385278 331.90177846271837 L 112.39965317792249 332.2182117346084 L 111.90219308235487 332.534754037371 L 111.40419797584443 332.85125538345204 L 110.90552829708575 333.16756578529703 L 110.40604448477336 333.4835352553518 L 109.90560697760198 333.79901380606196 L 109.40407621426611 334.11385144987327 L 108.90131263346034 334.4278981992314 L 108.39717667387926 334.74100406658187 L 107.89152877421735 335.05301906437046 L 107.38422937316936 335.36379320504295 L 106.87513890942978 335.6731765010448 L 106.36411782169323 335.98101896482194 L 105.85102654865425 336.28717060881985 L 105.33572552900742 336.5914814454844 L 104.81807520144734 336.8938014872611 L 104.29793600466861 337.1939807465956 L 103.7751683773658 337.4918692359338 L 103.24963275823355 337.7873169677213 L 102.72118958596626 338.0801739544037 L 102.18969929925869 338.37029020842664 L 101.65502233680539 338.65751574223594 L 101.11701913730091 338.94170056827716 L 100.57555013943984 339.2226946989962 L 100.03047578191668 339.5003481468384 L 99.48165650342617 339.7745109242497 L 98.92895275827688 340.04503305792736 L 98.3723872156049 340.3119126363979 L 97.81254454326552 340.5756607133674 L 97.25013103395315 340.8368993557982 L 96.68585298036243 341.0962506306521 L 96.12041667518776 341.35433660489133 L 95.55452841112367 341.6117793454779 L 94.98889448086464 341.8692009193739 L 94.4242211771051 342.12722339354156 L 93.86121479253964 342.3864688349427 L 93.30058161986275 342.6475593105396 L 92.74302795176888 342.91111688729416 L 92.18926008095254 343.17776363216865 L 91.63998430010814 343.448121612125 L 91.09590690193033 343.7228128941254 L 90.55773417911352 344.0024595451318 L 90.0261724243522 344.28768363210634 L 89.5019279303409 344.57910722201115 L 88.98570698977399 344.87735238180824 L 88.47821589534615 345.18304117845975 L 87.98016093975177 345.49679567892764 L 87.49224841568535 345.81923795017406 L 87.01518461584142 346.15099005916113 L 86.54967583291439 346.4926740728509 L 86.09642835959882 346.8449120582054 L 85.65614848858922 347.2083260821867 L 85.22954251258005 347.58353821175695 L 84.81731672426582 347.9711705138782 L 84.42017741634093 348.3718450555125 L 84.03883088150006 348.78618390362203 L 83.67398341243755 349.21480912516864 L 83.32634130184798 349.6583427871146 L 82.99660997942291 350.11740571503833 L 82.68521367182686 350.59221423891086 L 82.39189227815179 351.08200031986604 L 82.11628358537546 351.58584903618924 L 81.85802538047577 352.10284546616623 L 81.61675545043055 352.6320746880824 L 81.39211158221764 353.1726217802231 L 81.1837315628149 353.723571820874 L 80.99125317920016 354.28400988832055 L 80.81431421835129 354.8530210608483 L 80.65255246724605 355.4296904167426 L 80.50560571286242 356.0131030342891 L 80.37311174217814 356.6023439917732 L 80.25470834217107 357.1964983674804 L 80.1500332998191 357.7946512396963 L 80.05872440210004 358.3958876867064 L 79.98041943599175 358.999292786796 L 79.91475618847204 359.6039516182508 L 79.86136578135056 360.20897105228045 L 79.81974539223773 360.8138959138996 L 79.78926819889534 361.4186764671479 L 79.76930270649807 362.02327825389943 L 79.7592174202206 362.62766681602824 L 79.75838084523761 363.23180769540846 L 79.76616148672377 363.83566643391396 L 79.78192784985379 364.4392085734192 L 79.80504843980235 365.04239965579785 L 79.8348917617441 365.64520522292423 L 79.87082632085375 366.24759081667224 L 79.91222062230595 366.849521978916 L 79.95844317127543 367.4509642515298 L 80.00886247293685 368.05188317638743 L 80.0628470324649 368.652244295363 L 80.11976535503425 369.2520131503308 L 80.17898594581959 369.8511552831647 L 80.23987730999558 370.44963623573886 L 80.30180795273694 371.0474215499272 L 80.36414637921831 371.644476767604 L 80.42626109461442 372.2407674306432 L 80.48752060409993 372.836259080919 L 80.54729341284951 373.4309172603053 L 80.60494802603786 374.02470751067625 L 80.65985294883964 374.617595373906 L 80.71137668642955 375.2095463918685 L 80.7588877439823 375.80052610643787 L 80.8017546266725 376.39050005948826 L 80.8393458396749 376.9794337928936 L 80.87102988816414 377.5672928485279 L 80.89617527731495 378.15404276826564 L 80.91415051230194 378.73964909398046 L 80.92432409829988 379.32407736754664 L 80.92606454048338 379.9072931308381 L 80.91877868557994 380.4892648297237 L 80.90234051355611 381.069996290809 L 80.87693587000977 381.64951496144687 L 80.84275629054906 382.2278487199515 L 80.7999933107822 382.8050254446379 L 80.7488384663174 383.3810730138206 L 80.68948329276279 383.9560193058144 L 80.62211932572662 384.5298921989338 L 80.54693810081702 385.1027195714936 L 80.46413115364223 385.67452930180843 L 80.37389001981043 386.2453492681931 L 80.27640623492977 386.81520734896196 L 80.1718713346085 387.38413142243 L 80.06047685445475 387.9521493669119 L 79.94241433007673 388.51928906072203 L 79.81787529708267 389.0855783821753 L 79.68705129108069 389.65104520958624 L 79.55013384767902 390.2157174212697 L 79.40731450248585 390.7796228955403 L 79.25878479110935 391.3427895107127 L 79.10473624915772 391.90524514510145 L 78.94536041223914 392.4670176770214 L 78.78084881596182 393.0281349847872 L 78.61139299593391 393.5886249467134 L 78.43718448776367 394.14851544111485 L 78.2584148270592 394.707834346306 L 78.07527554942877 395.2666095406018 L 77.88795819048048 395.82486890231667 L 77.6966542858226 396.38264030976546 L 77.50155537106329 396.93995164126267 L 77.30285298181073 397.4968307751231 L 77.10073865367312 398.0533055896615 L 76.89540392225864 398.60940396319245 L 76.68704032317548 399.16515377403056 L 76.47583939203186 399.72058290049057 L 76.26199266443591 400.27571922088714 L 76.04569167599588 400.830590613535 L 75.82712796231989 401.38522495674886 L 75.60649305901619 401.9396501288432 L 75.38397850169297 402.49389400813277 L 75.15977582595838 403.04798447293234 L 74.93407656742059 403.60194940155645 L 74.70707226168786 404.15581667232004 L 74.47895444436834 404.7096141635375 L 74.24991465107021 405.26336975352353 L 74.02014441740168 405.8171113205929 L 73.78983527897094 406.3708667430603 L 73.55917877138613 406.9246638992404 L 73.32836643025551 407.4785306674478 L 73.09758979118725 408.03249492599724 L 72.8670403897895 408.58658455320324 L 72.63690976167047 409.14082742738066 L 72.40738944243833 409.6952514268442 L 72.17867096770132 410.2498844299084 L 71.95094587306762 410.804754314888 L 71.72440569414539 411.3598889600975 L 71.49924196654283 411.91531624385186 L 71.27564622586807 412.4710640444656 L 71.05381000772942 413.0271602402535 L 70.83392484773499 413.5836327095301 L 70.61618228149298 414.14050933061003 L 70.4007738446116 414.6978179818082 L 70.187891072699 415.2555865414392 L 69.9777255013634 415.81384288781754 L 69.77046866621296 416.37261489925794 L 69.56631210285592 416.9319304540752 L 69.36544734690042 417.491817430584 L 69.16806593395467 418.05230370709893 L 68.97435939962685 418.6134171619346 L 68.78451927952516 419.17518567340585 L 68.59873710925778 419.7376371198272 L 68.41720442443291 420.3007993795134 L 68.2401127606587 420.8647003307792 L 68.06765365354339 421.4293678519391 L 67.90001863869516 421.9948298213079 L 67.73739925172217 422.5611141172002 L 67.57998702823264 423.12824861793075 L 67.42797350383472 423.6962612018143 L 67.28155021413664 424.2651797471653 L 67.14090869474659 424.8350321322985 L 67.00624048127273 425.4058462355287 L 66.87773710932325 425.9776499351705 L 66.75559011450633 426.5504711095384 L 66.63999103243023 427.1243376369475 L 66.53113139870307 427.699277395712 L 66.42920274893304 428.27531826414685 L 66.33439661872835 428.8524881205667 L 66.24690454369718 429.43081484328616 L 66.16691805944774 430.01032631061986 M 509.8515325829934 433.00719451911806 L 509.8515325829934 433.00719451911806 L 509.98997009309716 432.40451519929417 L 510.1222582878571 431.80194720374845 L 510.24848956032065 431.1994881007033 L 510.368756303536 430.5971354583817 L 510.48315091055093 429.9948868450062 L 510.59176577441326 429.3927398287994 L 510.694693288171 428.7906919779843 L 510.79202584487183 428.1887408607832 L 510.8838558375636 427.58688404541886 L 510.9702756592944 426.98511910011433 L 511.0513777031118 426.3834435930919 L 511.12725436206415 425.7818550925744 L 511.19799802919886 425.1803511667846 L 511.2637010975637 424.57892938394485 L 511.3244559602073 423.9775873122784 L 511.3803550101766 423.3763225200075 L 511.43149064051994 422.7751325753549 L 511.47795524428517 422.17401504654345 L 511.51984121452006 421.5729675017957 L 511.5572409442725 420.97198750933427 L 511.5902468265905 420.37107263738204 L 511.6189512545216 419.7702204541616 L 511.64344662111426 419.1694285278958 L 511.66382531941565 418.5686944268069 L 511.680179742474 417.968015719118 L 511.6926022833373 417.36738997305173 L 511.70118533505297 416.7668147568306 L 511.70602129066947 416.1662876386775 L 511.7072025432341 415.5658061868148 L 511.704821485795 414.9653679694656 L 511.6989705114 414.3649705548523 L 511.68974201309703 413.76461151119764 L 511.6772283839338 413.16428840672444 L 511.66152201695843 412.56399880965523 L 511.6427153052187 411.9637402882128 L 511.62090064176226 411.36351041061977 L 511.59617041963725 410.7633067450989 L 511.5686170318914 410.16312685987276 L 511.53833287157244 409.56296832316406 L 511.5054103317286 408.9628287031957 L 511.46994180540753 408.36270556819017 L 511.43201968565694 407.76259648637006 L 511.39173636552516 407.16249902595837 L 511.34918423805937 406.56241075517744 L 511.3044556963081 405.9623292422502 L 511.25764313331894 405.36225205539927 L 511.2088389421397 404.76217676284733 L 511.1581355158183 404.162100932817 L 511.1056252474026 403.56202213353106 L 511.05140052994057 402.9619379332122 L 510.9955537564799 402.3618459000831 L 510.9381773200687 401.7617436023664 L 510.8793636137545 401.1616286082848 L 510.8192050305854 400.561498486061 L 510.7577939636093 399.96135080391775 L 510.69522280587404 399.3611831300777 L 510.6315839504272 398.76099303276334 L 510.5669697903172 398.16077808019776 L 510.5014727185914 397.5605358406032 L 510.43518512829786 396.96026388220264 L 510.36819941248444 396.3599597732188 L 510.300607964199 395.7596210818741 L 510.23250317648944 395.1592453763915 L 510.16397744240373 394.5588302249936 L 510.09512315498944 393.958373195903 L 510.0260327072946 393.35787185734245 L 509.95679849236717 392.7573237775346 L 509.88751290325496 392.1567265247023 L 509.81826833300573 391.55607766706805 L 509.7491571746676 390.95537477285467 L 509.68027182128804 390.3546154102846 L 509.6117046659153 389.753797147581 L 509.543548101597 389.152917552966 L 509.475894521381 388.5519741946626 L 509.40883631831537 387.95096464089346 L 509.3424658854479 387.3498864598813 L 509.27687561582644 386.74873721984875 L 509.2121579024988 386.1475144890185 L 509.14840513851294 385.5462158356132 L 509.0857097169166 384.94483882785556 L 509.0241640307577 384.34338103396834 L 508.9638604730842 383.7418400221742 L 508.90489143694384 383.14021336069567 L 508.84734931538463 382.5384986177557 L 508.79132650145425 381.9366933615768 L 508.7369153882008 381.3347951603817 L 508.684208368672 380.7328015823931 L 508.63329783591564 380.1307101958337 L 508.5842761829797 379.52851856892613 L 508.5372358029121 378.9262242698931 L 508.4922690887607 378.3238248669574 L 508.4494684335731 377.7213179283416 L 508.40892623039747 377.11870102226834 L 508.37073487228145 376.51597171696034 L 508.3349867522732 375.9131275806405 L 508.3017742634204 375.3101661815312 L 508.27118979877093 374.7070850878554 L 508.2433257513726 374.1038818678355 L 508.2182745142734 373.50055408969445 L 508.1961282684189 372.89709933340646 L 508.17686703678527 372.29352139312215 L 508.16017471466336 371.689840470116 L 508.14568689160666 371.0860794420687 L 508.1330391571692 370.48226118666156 L 508.1218671009052 369.8784085815759 L 508.11180631236806 369.2745445044926 L 508.10249238111186 368.67069183309286 L 508.0935608966906 368.0668734450577 L 508.0846474486581 367.46311221806855 L 508.07538762656816 366.8594310298063 L 508.0654170199747 366.25585275795197 L 508.0543712184317 365.6524002801869 L 508.0418858114929 365.0490964741921 L 508.02759638871237 364.4459642176488 L 508.01113853964387 363.84302638823794 L 507.99214785384123 363.2403058636408 L 507.9702599208585 362.6378255215384 L 507.9451103302496 362.03560823961203 L 507.9163346715682 361.43367689554265 L 507.8835685343683 360.8320543670113 L 507.8464475082038 360.2307635316994 L 507.8046071826286 359.62982726728785 L 507.75768314719653 359.0292684514578 L 507.70531099146154 358.42910996189045 L 507.6471263049776 357.8293746762669 L 507.5827646772984 357.2300854722683 L 507.51186169797785 356.63126522757557 L 507.43405295657 356.03293681987003 L 507.34897404262864 355.4351231268328 L 507.25626054570773 354.83784702614497 L 507.155548055361 354.2411313954876 L 507.04647216114245 353.64499911254194 L 506.92866845260585 353.049473054989 L 506.8017844061361 352.45464664897565 L 506.66552498365564 351.86095449792117 L 506.5196125014123 351.2689342033462 L 506.3637692792894 350.67912338834924 L 506.19771763717034 350.0920596760295 L 506.0211798949387 349.50828068948596 L 505.83387837247784 348.92832405181747 L 505.6355353896711 348.35272738612287 L 505.4258732664019 347.78202831550124 L 505.2046143225538 347.2167644630515 L 504.9714808780103 346.65747345187265 L 504.7261952526548 346.10469290506353 L 504.4684797663705 345.5589604457231 L 504.19805673904096 345.02081369695026 L 503.9146484905497 344.49079028184406 L 503.6179773407802 343.9694278235034 L 503.3077656096158 343.4572639450272 L 502.9837357585268 342.9548361217934 L 502.6457953651808 342.46248869318197 L 502.29440117909957 341.97999303491116 L 501.9301113146261 341.50701476644304 L 501.55348388610327 341.0432195072397 L 501.16507700787423 340.58827287676337 L 500.76544879428195 340.14184049447624 L 500.35515735966925 339.7035879798402 L 499.9347608183794 339.2731809523176 L 499.50481728475523 338.8502850313705 L 499.0658848731399 338.43456583646105 L 498.6185216978762 338.02568898705147 L 498.16328587330736 337.6233201026038 L 497.70073551377624 337.2271248025802 L 497.23142873362593 336.83676870644285 L 496.75592364719927 336.4519174336538 L 496.2747783688395 336.0722366036754 L 495.7885510128895 335.6973918359695 L 495.29779969369224 335.32704874999837 L 494.80308252559075 334.96087296522427 L 494.30495762292816 334.5985301011092 L 493.80398310004733 334.23968577711526 L 493.3007170712913 333.8840056127047 L 492.7957176510031 333.5311552273397 L 492.28954295352554 333.18080024048214 L 491.78274042825007 332.83261217028905 L 491.27558942187375 332.48641082024596 L 490.7680878591353 332.14217164594015 L 490.26022033400506 331.7998774760939 L 489.7519714404537 331.4595111394294 L 489.24332577245144 331.1210554646687 L 488.73426792396884 330.7844932805344 L 488.22478248897636 330.4498074157485 L 487.71485406144444 330.11698069903326 L 487.20446723534366 329.7859959591111 L 486.69360660464423 329.456836024704 L 486.18225676331673 329.1294837245343 L 485.6704023053316 328.80392188732424 L 485.15802782465926 328.48013334179603 L 484.64511791527013 328.15810091667186 L 484.1316571711347 327.83780744067406 L 483.61763018622344 327.5192357425248 L 483.10302155450677 327.2023686509463 L 482.5878158699551 326.8871889946609 L 482.0719977265391 326.5736796023909 L 481.555551718229 326.26182330285826 L 481.0384624389953 325.9516029247854 L 480.52071448280833 325.64300129689445 L 480.0022924436388 325.33600124790775 L 479.483180915457 325.0305856065475 L 478.96336449223344 324.72673720153597 L 478.44282776793835 324.4244388615953 L 477.92155533654255 324.1236734154478 L 477.39953179201626 323.82442369181564 L 476.8767417283299 323.52667251942114 L 476.3531697394541 323.2304027269865 L 475.8288004725882 322.9355971452938 L 475.3036260955227 322.64223889616363 L 474.77765400231897 322.3503116906562 L 474.25089342621766 322.0597993110058 L 473.7233536004586 321.77068553944673 L 473.1950437582822 321.4829541582133 L 472.66597313292857 321.1965889495398 L 472.13615095763777 320.9115736956603 L 471.6055864656503 320.6278921788096 L 471.0742888902059 320.3455281812215 L 470.5422674645452 320.0644654851307 L 470.0095314219082 319.78468787277126 L 469.476089995535 319.5061791263775 L 468.941952418666 319.2289230281838 L 468.4071279245412 318.95290336042444 L 467.8716257464009 318.6781039053337 L 467.3354551174852 318.4045084451459 L 466.7986252710344 318.1321007620954 L 466.26114544028866 317.86086463841633 L 465.72302485848803 317.59078385634314 L 465.18427275887285 317.3218421981101 L 464.64489837468346 317.0540234459516 L 464.10491093915954 316.7873113821017 L 463.56431968554176 316.5216897887949 L 463.0231338470702 316.2571424482655 L 462.4813626569848 315.99365314274763 L 461.9390153485262 315.7312056544758 L 461.3961011549341 315.46978376568416 L 460.852629309449 315.2093712586071 L 460.308609045311 314.9499519154789 L 459.76404959576035 314.6915095185339 L 459.2189601940373 314.4340278500063 L 458.67335007338164 314.17749069213045 L 458.12722846703423 313.92188182714085 L 457.5806046082345 313.6671850372714 L 457.0334877302232 313.4133841047567 L 456.48588706624037 313.16046281183105 L 455.9378118495262 312.90840494072864 L 455.3892713133207 312.6571942736837 L 454.84027469086425 312.40681459293063 L 454.29083121539696 312.15724968070384 L 453.74095012015914 311.90848331923746 L 453.1906406383909 311.6604992907659 L 452.6399120033323 311.41328137752345 L 452.08877344822383 311.16681336174435 L 451.53723420630536 310.92107902566295 L 450.98530351081735 310.6760621515135 L 450.43299059499975 310.43174652153044 L 449.88030469209286 310.18811591794787 L 449.3272550353369 309.94515412300024 L 448.77385085797204 309.7028449189218 L 448.2201013932384 309.46117208794686 L 447.6660158743762 309.22011941230966 L 447.1116035346257 308.9796706742446 L 446.5568736072271 308.73980965598605 L 446.00183532542053 308.50052013976807 L 445.4464979224461 308.2617859078251 L 444.89087063154415 308.02359074239155 L 444.33496268595474 307.7859184257015 L 443.7787833189182 307.5487527399894 L 443.2223417636746 307.31207746748953 L 442.66564725346404 307.0758763904361 L 442.1087090215271 306.84013329106364 L 441.5515363011035 306.60483195160623 L 440.9941383254337 306.3699561542982 L 440.43652432775775 306.1354896813738 L 439.878703541316 305.9014163150676 L 439.3206851993485 305.66771983761373 L 438.76247853509557 305.4343840312464 L 438.20409278179727 305.2013926782 L 437.6455371726938 304.9687295607088 L 437.0868209410256 304.73637846100735 L 436.5279533200324 304.50432316132947 L 435.9689435429547 304.2725474439099 L 435.4098008430327 304.0410350909827 L 434.8505344535064 303.80976988478227 L 434.2911536076162 303.57873560754285 L 433.73166753860227 303.3479160414988 L 433.17208547970455 303.1172949688844 L 432.61241666416345 302.8868561719339 L 432.0526703252192 302.6565834328817 L 431.49285569611175 302.42646053396203 L 430.9329820100817 302.19647125740926 L 430.37305850036864 301.9665993854576 L 429.8130944002134 301.7368287003414 L 429.2530989428556 301.5071429842949 L 428.6930813615359 301.27752601955257 L 428.1330508894943 301.0479615883485 L 427.5730167599709 300.8184334729172 L 427.012988206206 300.5889254554928 L 426.45297446143974 300.3594213183097 L 425.89298475891235 300.1299048436022 L 425.3330283318639 299.9003598136045 L 424.7731144135348 299.6707700105511 L 424.21325223716497 299.44111921667604 L 423.65345103599486 299.21139121421385 L 423.0937200432644 298.9815697853986 L 422.53406849221403 298.75163871246485 L 421.9745056160838 298.52158177764676 L 421.41504064811403 298.29138276317866 L 420.8556828215447 298.0610254512949 L 420.2964413696162 297.8304936242297 L 419.7373255255685 297.59977106421735 L 419.17834452264196 297.3688415534922 L 418.6195075940768 297.13768887428853 L 418.0608239731131 296.9062968088407 L 417.502302892991 296.6746491393829 L 416.9439535869508 296.44272964814957 L 416.38578528823274 296.21052211737486 L 415.8278072300768 295.9780103292932 L 415.2700286457234 295.74517806613886 L 414.7124587684127 295.5120091101462 L 414.1551068313846 295.2784872435493 L 413.59798206787974 295.04459624858276 L 413.04109371113793 294.8103199074806 L 412.48445099439954 294.5756420024773 L 411.92806315090473 294.3405463158071 L 411.37193941389376 294.1050166297044 L 410.81608901660655 293.86903672640335 L 410.2605211922836 293.6325903881383 L 409.7052451741651 293.39566139714367 L 409.150270195491 293.15823353565355 L 408.59560573320067 292.92028991643747 L 408.04126473190917 292.6818041262277 L 407.4872627170715 292.44274266194054 L 406.93361527561007 292.2030718516363 L 406.3803379944472 291.96275802337505 L 405.8274464605052 291.721767505217 L 405.27495626070646 291.4800666252223 L 404.72288298197327 291.2376217114513 L 404.1712422112281 290.99439909196417 L 403.6200495353931 290.7503650948209 L 403.06932054139065 290.5054860480819 L 402.5190708161433 290.2597282798074 L 401.9693159465732 290.0130581180574 L 401.4200715196027 289.7654418908922 L 400.87135312215423 289.51684592637207 L 400.32317634114986 289.267236552557 L 399.7755567635123 289.01658009750736 L 399.2285099761637 288.76484288928333 L 398.6820515660264 288.511991255945 L 398.1361971200228 288.2579915255527 L 397.59096222507526 288.0028100261666 L 397.046362468106 287.7464130858469 L 396.50241343603744 287.4887670326537 L 395.9591307157919 287.2298381946472 L 395.41652989429184 286.96959289988774 L 394.87462655845934 286.7079974764354 L 394.3334362952169 286.44501825235045 L 393.79297469148696 286.180621555693 L 393.2532573341916 285.9147737145233 L 392.7142998102534 285.6474410569015 L 392.1761177065946 285.37858991088785 L 391.63872661013767 285.10818660454265 L 391.10214210780464 284.8361974659258 L 390.5663797865182 284.56258882309777 L 390.0314552332004 284.2873270041186 L 389.49738403477375 284.01037833704856 L 388.9641817781606 283.73170914994785 L 388.4318640502832 283.45128577087667 L 387.90044643806397 283.1690745278952 L 387.3699445284252 282.88504174906353 L 386.8403739082893 282.59915376244203 L 386.3117501645785 282.31137689609085 L 385.78408888421524 282.0216774780701 L 385.2574056541218 281.7300218364401 L 384.7317160612206 281.4363762992609 L 384.20703569243375 281.14070719459284 L 383.68338013468383 280.842980850496 L 383.1607649748931 280.54316359503065 L 382.6392057999839 280.241221756257 L 382.11871819687866 279.93712166223514 L 381.5993177524997 279.63082964102546 L 381.0810200537692 279.32231202068795 L 380.56384068760946 279.01153512928283 L 380.0477952409431 278.69846529487046 L 379.53289930069235 278.38306884551093 L 379.01916845377946 278.0653121092644 L 378.506618287127 277.74516141419116 L 377.9952643876569 277.42258308835125 L 377.4851223422919 277.09754345980514 L 376.97620773795416 276.7700088566127 L 376.46853616156596 276.4399456068343 L 375.96212320004986 276.1073200385302 L 375.456984440328 275.7720984797604 L 374.9531354693228 275.43424725858534 L 374.45059187395645 275.093732703065 L 373.9493692411516 274.7505211412597 L 373.44948315783034 274.4045789012296 L 372.95094921091504 274.0558723110349 L 372.4537829873282 273.7043676987358 L 371.95800007399197 273.3500313923924 L 371.4636194825185 272.9928390715665 L 370.97069134085825 272.6328513824919 L 370.47928237082795 272.270174282826 L 369.9894594494135 271.9049141539328 L 369.5012894536006 271.537177377176 L 369.014839260375 271.16707033391964 L 368.53017574672253 270.79469940552747 L 368.047365789629 270.42017097336355 L 367.5664762660802 270.0435914187918 L 367.08757405306176 269.66506712317585 L 366.6107260275597 269.2847044678798 L 366.13599906655946 268.9026098342675 L 365.6634600470472 268.5188896037028 L 365.19317584600844 268.13365015754965 L 364.72521334042915 267.74699787717185 L 364.25963940729486 267.35903914393344 L 363.7965209235916 266.9698803391982 L 363.3359247663051 266.57962784433005 L 362.87791781242106 266.1883880406929 L 362.42256693892523 265.7962673096506 L 361.9699390228034 265.40337203256706 L 361.52010094104156 265.0098085908063 L 361.0731195706252 264.6156833657319 L 360.6290617885403 264.2211027387081 L 360.1879944717726 263.82617309109855 L 359.7499844973078 263.4310008042672 L 359.3150987421318 263.03569225957807 L 358.883381407 262.64034920824844 L 358.4545025396285 262.2449970050511 L 358.0278252301912 261.84959832862825 L 357.60270349703313 261.4541140052902 L 357.17849135849934 261.0585048613474 L 356.7545428329347 260.6627317231102 L 356.3302119386842 260.26675541688917 L 355.90485269409294 259.87053676899467 L 355.47781911750576 259.4740366057372 L 355.04846522726785 259.07721575342714 L 354.61614504172394 258.6800350383749 L 354.18021257921913 258.282455286891 L 353.74002185809854 257.8844373252858 L 353.29492689670684 257.4859419798697 L 352.84428171338925 257.08693007695325 L 352.3874403264908 256.6873624428469 L 351.92375675435625 256.287199903861 L 351.4525850153307 255.88640328630592 L 350.97327912775916 255.4849334164922 L 350.4851931099866 255.08275112073025 L 349.987680980358 254.67981722533054 L 349.4800967572183 254.27609255660343 L 348.96179445891255 253.87153794085944 L 348.43212810378566 253.46611420440894 L 347.8904517101827 253.0597821735624 L 347.33666410356915 252.65249011180862 L 346.7731465100769 252.24412904043865 L 346.2029868053567 251.83457368596422 L 345.6292729158301 251.4236987737263 L 345.0550927679182 251.01137902906567 L 344.48353428804285 250.59748917732355 L 343.91768540262524 250.1819039438406 L 343.360634038087 249.76449805395794 L 342.81546812084963 249.34514623301632 L 342.28527557733446 248.92372320635687 L 341.77314433396305 248.5001036993204 L 341.2821623171569 248.0741624372479 L 340.81541745333743 247.64577414548032 L 340.37599766892606 247.21481354935852 L 339.96699089034433 246.7811553742235 L 339.5914850440137 246.3446743454162 L 339.2525680563557 245.90524518827752 L 338.95332785379173 245.46274262814845 L 338.6968523627432 245.0170413903698 L 338.4862295096317 244.56801620028267 L 338.3245472208787 244.11554178322797 L 338.21489342290556 243.6594928645465 L 338.16035604213374 243.19974416957922 L 338.1638423505145 242.73617678115724 L 338.2247367291674 242.26879575769345 L 338.3392197325046 241.79771890485867 L 338.50335525363994 241.32306813380234 L 338.7132071856873 240.84496535567382 L 338.9648394217604 240.36353248162234 L 339.2543158549733 239.87889142279747 L 339.57770037843943 239.39116409034833 L 339.93105688527294 238.90047239542432 L 340.31044926858755 238.406938249175 L 340.7119414214971 237.91068356274943 L 341.1315972371152 237.41183024729708 L 341.56548060855596 236.91050021396737 L 342.0096554289331 236.40681537390952 L 342.46018559136047 235.900897638273 L 342.9131349889517 235.39286891820703 L 343.3645675148208 234.88285112486105 L 343.8105470620815 234.3709661693844 L 344.24713752384764 233.85733596292633 L 344.6704027932331 233.34208241663634 L 345.0764329426992 232.82532596270755 L 345.463030556687 232.3070902879807 L 345.8307374969071 231.7872443286454 L 346.1803414698512 231.2656431323225 L 346.5126301820113 230.74214174663302 L 346.828391339879 230.21659521919776 L 347.1284126499461 229.6888585976377 L 347.41348181870444 229.15878692957384 L 347.68438655264583 228.6262352626271 L 347.94191455826217 228.09105864441835 L 348.18685354204507 227.5531121225685 L 348.4199912104864 227.01225074469852 L 348.642115270078 226.46832955842942 L 348.8540134273117 225.92120361138208 L 349.05647338867914 225.37072795117737 L 349.2502828606722 224.8167576254363 L 349.4362295497828 224.25914768177975 L 349.61510116250264 223.6977531678287 L 349.7876854053234 223.13242913120405 L 349.9547344633728 222.5630650461936 L 350.11674318848515 221.98979978988183 L 350.27409309564564 221.41288208338696 L 350.42716520673406 220.83256112573665 L 350.5763405436303 220.24908611595833 L 350.722000128214 219.66270625307962 L 350.864524982365 219.073670736128 L 351.0042961279631 218.48222876413087 L 351.1416945868878 217.88862953611593 L 351.2771013810193 217.29312225111065 L 351.41089753223696 216.69595610814244 L 351.54346406242075 216.0973803062389 L 351.6751819934504 215.49764404442746 L 351.8064323472057 214.89699652173587 L 351.93759614556626 214.2956869371914 L 352.06905441041204 213.69396448982167 L 352.20118816362276 213.09207837865424 L 352.33437842707804 212.49027780271643 L 352.46900622265775 211.88881196103597 L 352.60545257224175 211.28793005264035 L 352.7440984977097 210.68788127655708 L 352.8853250209412 210.0889148318135 L 353.02951316381626 209.49127991743728 L 353.17704394821465 208.89522573245603 L 353.32829839601595 208.30100147589715 L 353.48365752910007 207.70885634678814 L 353.64350236934666 207.11903954415655 L 353.80821393863556 206.5318002670298 L 353.97817325884654 205.94738771443565 L 354.1537613518593 205.3660510854014 L 354.3353592395537 204.78803957895468 L 354.5233479438095 204.213602394123 L 354.71810848650625 203.6429887299337 L 354.920021889524 203.0764477854145 L 355.1294691747422 202.51422875959292 L 355.34683136404095 201.95658085149637 L 355.57248947929975 201.4037532601523 L 355.8068245423986 200.8559951845885 L 356.0502175752171 200.3135558238323 L 356.303049599635 199.77668437691125 L 356.5657016375322 199.24563004285284 L 356.8385547107884 198.72064202068455 L 357.1219898412832 198.201969509434 L 357.4163880508965 197.68986170812866 L 357.7221303615081 197.18456781579607 L 358.03959779499786 196.68633703146378 L 358.36917137324525 196.1954185541591 L 358.7112321181302 195.7120615829098 L 359.06616105153245 195.2365153167433 L 359.4343391953318 194.7690289546871 L 359.81614757140807 194.3098516957688 L 360.21196720164085 193.8592327390157 L 360.62217910791003 193.41742128345555 L 361.047154088385 192.9846603177079 L 361.4865601729149 192.56076593273897 L 361.93892136175185 192.14485927704814 L 362.40265655602207 191.73599765651545 L 362.8761846568512 191.33323837702088 L 363.35792456536564 190.93563874444462 L 363.846295182691 190.54225606466647 L 364.3397154099536 190.15214764356665 L 364.8366041482793 189.764370787025 L 365.3353802987942 189.37798280092179 L 365.8344627626239 188.99204099113683 L 366.33227044089483 188.6056026635503 L 366.8272222347327 188.21772512404203 L 367.31773704526364 187.8274656784922 L 367.8022337736137 187.43388163278084 L 368.2791313209087 187.0360302927879 L 368.74684858827476 186.63296896439348 L 369.2038044768379 186.22375495347762 L 369.64841788772395 185.80744556592018 L 370.07910772205895 185.38309810760134 L 370.49429288096894 184.94976988440115 L 370.8923922655799 184.50651820219952 L 371.2718247770179 184.05240036687658 L 371.6310093164088 183.5864736843122 L 371.9683647848786 183.10779546038663 L 372.28245690469726 182.61551183253127 L 372.573389084857 182.10969928849158 L 372.8421819799575 181.5909892793395 L 373.0898684969959 181.06002066924464 L 373.3174815429689 180.5174323223767 L 373.5260540248737 179.96386310290512 L 373.71661884970746 179.39995187499966 L 373.8902089244671 178.82633750282986 L 374.04785715614975 178.24365885056525 L 374.1905964517524 177.65255478237563 L 374.31945971827196 177.05366416243038 L 374.43547986270573 176.44762585489931 L 374.5396897920506 175.8350787239519 L 374.6331224133035 175.21666163375772 L 374.7168106334618 174.59301344848657 L 374.79178735952223 173.96477303230787 L 374.8590854984819 173.3325792493913 L 374.9197551278945 172.69708171866085 L 374.9754903753782 172.05933345891438 L 375.0288086904852 171.42090317551188 L 375.0822812268629 170.78339321129982 L 375.1384791381586 170.14840590912456 L 375.1999735780197 169.51754361183254 L 375.2693357000934 168.8924086622702 L 375.34913665802725 168.274603403284 L 375.4419476054685 167.66573017772032 L 375.5503396960645 167.06739132842557 L 375.6768840834626 166.48118919824614 L 375.8241519213102 165.90872613002855 L 375.9947143632547 165.3516044666192 L 376.19114256294336 164.81142655086447 L 376.41600767402343 164.28979472561073 L 376.67188085014254 163.7883113337045 L 376.96133324494787 163.3085787179922 L 377.2868162985837 162.85212408446776 L 377.6482419921541 162.41888077582328 L 378.0430963122238 162.00725948618484 L 378.4687682396188 161.61561002510226 L 378.9226467551651 161.24228220212564 L 379.40212083968885 160.88562582680495 L 379.9045794740161 160.54399070869025 L 380.42741163897296 160.21572665733137 L 380.9680063153854 159.89918348227835 L 381.52375248407947 159.59271099308123 L 382.09203912588134 159.29465899929 L 382.67025522161697 159.00337731045454 L 383.25578975211255 158.71721573612498 L 383.84603169819417 158.43452408585125 L 384.4383700406876 158.1536521691833 L 385.03019376041925 157.87294979567116 L 385.61889183821495 157.59076677486482 L 386.20185325490075 157.30545291631424 L 386.776466991303 157.01535802956937 L 387.34012202824755 156.71883192418034 L 387.89020734656043 156.41422440969697 L 388.42411192706777 156.09988529566937 L 388.9392247505956 155.77416439164747 L 389.4329347979701 155.43541150718124 L 389.9026310500173 155.08197645182076 L 390.3457024875631 154.7122090351159 L 390.7595380914338 154.32445906661678 L 391.1415268424552 153.91707635587323 L 391.4890577214537 153.48841071243535 L 391.7995197092549 153.03681194585306 L 392.0705032836595 152.56080731090927 L 392.30197760729925 152.06101881485336 L 392.49546388406816 151.53943524636773 L 392.65250997858215 150.99806887249198 L 392.77466375545663 150.4389319602657 L 392.86347307930737 149.8640367767285 L 392.9204858147502 149.27539558891993 L 392.9472498264004 148.67502066387956 L 392.945312978874 148.0649242686469 L 392.91622313678647 147.4471186702617 L 392.8615281647535 146.82361613576347 L 392.7827759273909 146.19642893219176 L 392.6815142893141 145.56756932658618 L 392.55929111513893 144.93904958598623 L 392.4176542694809 144.31288197743163 L 392.25815161695584 143.69107876796187 L 392.0823310162093 143.07565176012872 L 391.89173278552596 142.46802609018903 L 391.6878749572501 141.86789297081603 L 391.4722714662743 141.27462481867673 L 391.2464362474912 140.6875940504379 L 391.0118832357931 140.10617308276622 L 390.77012636607225 139.52973433232845 L 390.52267957322135 138.95765021579155 L 390.27105679213287 138.3892931498223 L 390.0167719576993 137.82403555108743 L 389.76133900481284 137.2612498362537 L 389.5062718683663 136.700308421988 L 389.25308448325177 136.14058372495703 L 389.003290784362 135.5814481618277 L 388.75840470658943 135.02227414926676 L 388.5199401848264 134.46243410394098 L 388.2894111539654 133.90130044251714 L 388.0683315488989 133.33824558166208 L 387.85821025961314 132.7726442606293 L 387.6600299990623 132.20411346137982 L 387.47379401279704 131.6327210955457 L 387.2993987178832 131.05858425672608 L 387.1367405313867 130.48182003852025 L 386.98571587037316 129.90254553452718 L 386.8462211519083 129.320877838346 L 386.7181527930579 128.73693404357596 L 386.60140721088777 128.15083124381593 L 386.4958808224638 127.56268653266537 L 386.4014700448515 126.97261700372319 L 386.31807129511685 126.38073975058859 L 386.2455809903255 125.78717186686069 L 386.18389554754333 125.19203044613857 L 386.132911383836 124.59543258202145 L 386.0925249162694 123.99749536810843 L 386.0626325619092 123.39833589799862 L 386.0431307378211 122.79807126529117 L 386.0339158610709 122.19681856358507 L 386.0348843487247 121.5946948864797 L 386.04593261784777 120.99181732757403 L 386.0669570855062 120.38830298046723 L 386.0978541687656 119.7842689387584 L 386.1385202846918 119.17983229604663 L 386.1888518503507 118.57511014593118 L 386.2487452828078 117.97021958201108 L 386.3180969991291 117.3652776978855 L 386.3968034163803 116.76040158715355 L 386.48476095162704 116.15570834341429 L 386.5818660219353 115.551315060267 L 386.6880150443708 114.94733883131073 L 386.80310443599905 114.34389675014458 L 386.92703061388613 113.74110591036774 L 387.0596899950977 113.13908340557919 L 387.20082751141985 112.53794674132247 L 387.34879535833903 111.9378172105033 L 387.5011958794588 111.33881814515057 L 387.65562417456846 110.74107289699182 L 387.80967534345734 110.14470481775453 L 387.9609444859146 109.54983725916637 L 388.10702670172935 108.95659357295479 L 388.2455170906911 108.36509711084734 L 388.3740107525888 107.77547122457153 L 388.49010278721175 107.18783926585486 L 388.5913882943494 106.602324586425 L 388.67546237379065 106.01905053800937 L 388.73992012532506 105.43814047233556 L 388.7823566487416 104.85971774113098 L 388.80036704382957 104.28390569612334 L 388.7915464103782 103.71082768904007 L 388.7534898481768 103.14060707160876 L 388.68432003715867 102.57330529753614 L 388.5855398690127 102.00858723923301 L 388.4599856223567 101.44596133029681 L 388.31049682373634 100.88493562326371 L 388.1399129996966 100.32501817066989 L 387.9510736767826 99.76571702505154 L 387.7468183815398 99.20654023894487 L 387.52998664051336 98.64699586488618 L 387.3034179802486 98.08659195541163 L 387.06995192729073 97.52483656305746 L 386.832428008185 96.96123774035985 L 386.59368574947666 96.395303539855 L 386.35656467771094 95.8265420140792 L 386.12390431943317 95.25446121556863 L 385.8985442011885 94.67856919685946 L 385.68332384952225 94.09837401048796 L 385.48108279097966 93.51338370899025 L 385.2946605514882 92.92310634508851 L 385.12595965240985 92.32733183297468 L 384.9732320194408 91.72694822691204 L 384.8338406551744 91.12311097919134 L 384.705148562204 90.51697554210318 L 384.58451874312277 89.9096973679384 L 384.4693142005242 89.30243190898767 L 384.3568979370012 88.69633461754164 L 384.24463295514744 88.09256094589107 L 384.12988225755606 87.49226634632657 L 384.01000884682026 86.89660627113898 L 383.88237572553334 86.30673617261893 L 383.74434589628873 85.72381150305716 L 383.5932823616796 85.14898771474434 L 383.4265481242992 84.5834202599711 L 383.2415061867408 84.0282645910283 L 383.0355195515978 83.48467616020658 L 382.8059525088718 82.95380977082975 L 382.55120632374815 82.43629749964629 L 382.2725873498986 81.93130700363879 L 381.9719068267717 81.4377514330119 L 381.650975993816 80.95454393797003 L 381.3116060904804 80.48059766871772 L 380.9556083562131 80.01482577545947 L 380.58479403046294 79.55614140839975 L 380.2009743526783 79.10345771774315 L 379.8059605623081 78.65568785369413 L 379.4015638988007 78.21174496645725 L 378.9895956016046 77.77054220623693 L 378.5718669101686 77.3309927232377 L 378.15018906394124 76.89200966766414 L 377.726373302371 76.45250618972071 L 377.3022308649065 76.01139543961193 L 376.87957299099645 75.5675905675423 L 376.46021092008937 75.12000472371628 L 376.0459558916338 74.66755105833849 L 375.63861914507834 74.20914272161336 L 375.2400119198716 73.74369286374541 L 374.85194545546227 73.27011463493918 L 374.4758934098529 72.78754311478401 L 374.11157044966944 72.29626976121735 L 373.75812016987055 71.79696146034445 L 373.4146858650502 71.29028529573333 L 373.0804108298028 70.77690835095203 L 372.75443835872244 70.25749770956861 L 372.43591174640324 69.7327204551512 L 372.1239742874394 69.2032436712678 L 371.8177692764251 68.66973444148647 L 371.51644000795443 68.13285984937521 L 371.21912977662146 67.59328697850218 L 370.92498187702057 67.0516829124354 L 370.63313960374575 66.5087147347429 L 370.3427462513912 65.96504952899275 L 370.052945114551 65.42135437875294 L 369.76287948781953 64.87829636759166 L 369.47169266579067 64.33654257907688 L 369.1785279430588 63.79676009677666 L 368.88252861421796 63.25961600425908 L 368.5828379738623 62.7257773850921 L 368.27865035407035 62.19587224675086 L 367.9696917099077 61.67012156745491 L 367.6560037918604 61.14850454134353 L 367.33763251677846 60.63099717264093 L 367.0146238015126 60.11757546557135 L 366.6870235629129 59.60821542435911 L 366.35487771782994 59.10289305322844 L 366.01823218311375 58.60158435640357 L 365.6771328756149 58.10426533810877 L 365.33162571218355 57.610912002568206 L 364.9817566096702 57.12150035400628 L 364.62757148492517 56.63600639664715 L 364.26911625479875 56.15440613471509 L 363.90643683614115 55.67667557243433 L 363.5395791458028 55.202790714029085 L 363.1685891006342 54.73272756372372 L 362.79351261748536 54.2664621257424 L 362.4143956132069 53.80397040430941 L 362.031284004649 53.34522840364898 L 361.644223708662 52.890212127985315 L 361.25326064209645 52.43889758154278 L 360.85844072180237 51.991260768545565 L 360.45980986463024 51.54727769321792 L 360.05741398743044 51.106924359784095 L 359.6512990070532 50.670176772468295 L 359.2415108403489 50.23701093549486 L 358.8280954041679 49.80740285308801 L 358.4110986153605 49.38132852947197 L 357.9905663907771 48.95876396887102 L 357.5665446472679 48.53968517550935 L 357.1390793016834 48.124068153611304 L 356.70821627087383 47.71188890740108 L 356.2740014716895 47.30312344110294 L 355.83648082098085 46.89774775894112 L 355.39570023559804 46.49573786513986 L 354.9517056323917 46.097069763923464 L 354.50454292821183 45.701719459516156 L 354.054258039909 45.30966295614218 L 353.6008968843334 44.920876258025785 L 353.1445053783355 44.53533536939119 L 352.68512943876556 44.153016294462724 L 352.22281498247384 43.77389503746459 L 351.75760792631087 43.39794760262105 L 351.28955418712684 43.02514999415635 L 350.81869968177193 42.655478216294696 L 350.34509032709684 42.28890827326043 L 349.8687720399517 41.92541616927775 L 349.38979073718684 41.564977908570924 L 348.9081923356525 41.20756949536413 L 348.4240227521994 40.85316693388175 L 347.93732790367744 40.501746228347955 L 347.44815370693715 40.153283382987006 L 346.9565460788288 39.80775440202316 L 346.4625509362027 39.4651352896806 L 345.9662141959094 39.12540205018371 L 345.467581774799 38.78853068775666 L 344.9666995897219 38.4544972066237 L 344.4636135575285 38.12327761100911 L 343.95836959506903 37.794847905137075 L 343.4510136191939 37.46918409323193 L 342.9415915467535 37.1462621795179 L 342.4301492945979 36.82605816821922 L 341.9167327795778 36.50854806356015 L 341.40138791854315 36.193707869764886 L 340.8841606283447 35.8815135910578 L 340.3650968258325 35.57194123166305 L 339.84424242785695 35.2649667958049 L 339.32164335126845 34.960566287707636 L 338.79734551291716 34.658715711595434 L 338.27139482965356 34.35939107169264 L 337.743837218328 34.06256837222345 L 337.21471859579077 33.76822361741213 L 336.68408487889224 33.47633281148294 L 336.1519819844826 33.186871958660056 L 335.6184558294124 32.899817063167845 L 335.0835521983488 32.61514417861689 L 334.5473067897126 32.332833127052396 L 334.00973828412924 32.05287008872727 L 333.47086372368216 31.775241856088297 L 332.9307001504546 31.499935221582383 L 332.3892646065294 31.22693697765631 L 331.8465741339903 30.956233916756936 L 331.3026457749203 30.687812831331083 L 330.7574965714026 30.421660513825564 L 330.21114356552056 30.15776375668726 L 329.6636037993574 29.896109352362984 L 329.1148943149964 29.63668409329957 L 328.5650321545206 29.379474771943844 L 328.01403436001334 29.124468180742607 L 327.46191797355795 28.87165111214277 L 326.9087000372376 28.621010358591118 L 326.3543975931356 28.3725327125345 L 325.7990276833353 28.12620496641975 L 325.2426073499196 27.882013912693655 L 324.685153634972 27.63994634380312 L 324.1266835805756 27.39998905219495 L 323.5672142288137 27.16212883031597 L 323.0067626217697 26.926352470613026 L 322.44534580152657 26.692646765532913 L 321.88298081016774 26.46099850752253 L 321.31968468977635 26.23139448902867 L 320.7554744824357 26.003821502498184 L 320.1903672302291 25.778266340377886 L 319.6243799752396 25.554715795114607 L 319.05752975955056 25.333156659155215 L 318.48983362524524 25.113575724946518 L 317.9213086144069 24.895959784935357 L 317.3519717691187 24.680295631568562 L 316.78184013146387 24.466570057292948 L 316.2109307435257 24.25476985455539 L 315.63926064738746 24.044881815802704 L 315.0668468851324 23.83689273348172 L 314.49370649884366 23.630789400039262 L 313.91985653060453 23.426558607922157 L 313.34531402249837 23.224187149577283 L 312.77009601660825 23.02366181745144 L 312.1942195550176 22.824969403991474 L 311.6177016798094 22.62809670164419 L 311.040559433067 22.433030502856457 L 310.4628098568739 22.239757600075105 L 309.88446999331296 22.04826478574696 L 309.3055568844676 21.858538852318848 L 308.7260875724211 21.6705665922376 L 308.1460790992565 21.484334797950066 L 307.5655485070573 21.29983026190308 L 306.9845128379067 21.11703977654347 L 306.40298913388784 20.93595013431807 L 305.8209944370838 20.756548127673682 L 305.23854578957827 20.578820549057202 L 304.65566023345417 20.402754190915427 L 304.07235481079476 20.22833584569519 L 303.4886465636834 20.05555230584334 L 302.90455253420316 19.884390363806677 L 302.3200897644374 19.714836812032072 L 301.7352752964695 19.546878442966356 L 301.15012617238244 19.380502049056346 L 300.56465943425957 19.215694422748886 L 299.97889212418414 19.052442356490786 L 299.3928412842394 18.890732642728914 L 298.80652395650856 18.730552073910093 L 298.21995718307494 18.571887442481152 L 297.63315800602163 18.41472554088892 L 297.046143467432 18.25905316158023 L 296.4589306093893 18.104857097001936 L 295.8715364739767 17.952124139600855 L 295.28397810327743 17.800841081823823 L 294.69627253937483 17.650994716117676 L 294.108436824352 17.502571834929228 L 293.52048800029235 17.35555923070535 L 292.93244310927895 17.20994369589285 L 292.3443191933952 17.065712022938573 L 291.75613329472435 16.922851004289356 L 291.16790245534946 16.781347432392 L 290.5796437173539 16.641188099693384 L 289.9913741228209 16.502359798640317 L 289.40311071383366 16.364849321679635 L 288.81487053247554 16.228643461258184 L 288.22667062082957 16.093729009822766 L 287.6385280209791 15.960092759820247 L 287.05045977500754 15.82772150369746 L 286.46248292499786 15.69660203390122 L 285.87461451303346 15.566721142878373 L 285.2868715811975 15.438065623075735 L 284.6992711715733 15.310622266940172 L 284.1118303262441 15.184377866918496 L 283.5245660872931 15.059319215457545 L 282.93749549680354 14.935433105004153 L 282.35063559685864 14.81270632800514 L 281.76400342954173 14.691125676907365 L 281.17761603693594 14.57067794415765 L 280.59149046112464 14.45134992220283 L 280.00564374419093 14.333128403489733 L 279.42009292821814 14.216000180465187 L 278.83485505528955 14.09995204557605 L 278.24994716748824 13.984970791269138 L 277.6653863068977 13.871043209991289 L 277.08118951560084 13.758156094189323 L 276.49737383568123 13.6462962363101 L 275.913956309222 13.535450428800441 L 275.33095397830624 13.425605464107175 L 274.74838388501746 13.316748134677145 L 274.16626307143866 13.208865232957166 L 273.5846085796532 13.101943551394095 L 273.0034374517444 12.99596988243476" fill="none" stroke="black" stroke-linecap="round" stroke-linejoin="round"/>
    <text fill="red" font-size="65" font-family="Arial" dominant-baseline="hanging" text-anchor="start" letter-spacing="36px">
        <textPath href="#myPath" startOffset="20%" dy="10">
           Timothee Chalamet Dune Two
        </textPath>
    </text>
</svg>
