
<svg width="575" height="434" xmlns="http://www.w3.org/2000/svg">
    <path id="myPath" d="M 264 10 L 265 11 L 316 26 L 350 41 L 365 56 L 370 71 L 384 86 L 387 101 L 386 116 L 389 131 L 392 146 L 378 161 L 375 176 L 361 191 L 354 206 L 350 221 L 337 236 L 341 251 L 363 266 L 382 281 L 416 296 L 451 311 L 480 326 L 502 341 L 507 356 L 508 371 L 510 386 L 511 401 L 512 416 L 510 431 L 69 421 L 74 406 L 80 391 L 81 376 L 80 361 L 88 346 L 114 331 L 142 316 L 175 301 L 204 286 L 221 271 L 230 256 L 228 241 L 209 226 L 207 211 L 195 196 L 186 181 L 182 166 L 175 151 L 169 136 L 166 121 L 164 106 L 159 91 L 169 76 L 173 61 L 187 46 L 220 31 L 237 16" fill="none" stroke="black" stroke-linecap="round" stroke-linejoin="round"/>
    <!-- Render text along the path with visibility adjustments -->
    <text fill="red" font-size="30" font-family="Arial" text-anchor="start" letter-spacing="3">
        <textPath href="#myPath" startOffset="40%" dy="-10">
            Your text follows this path and wraps around the subject beautifully!
        </textPath>
    </text>
</svg>
